<svg xmlns:xlink="http://www.w3.org/1999/xlink" xmlns="http://www.w3.org/2000/svg" width="24" height="24" viewBox="0 0 24 24">
  <path d="M12.75 14.506h-1.5v-1.139c0-1.077.598-2.064 1.522-2.514a1.78 1.78 0 0 0 .927-2.068 1.741 1.741 0 0 0-1.218-1.218 1.766 1.766 0 0 0-1.559.305 1.75 1.75 0 0 0-.685 1.395h-1.5c0-1.017.46-1.958 1.266-2.58a3.285 3.285 0 0 1 2.853-.574 3.244 3.244 0 0 1 2.297 2.297c.398 1.542-.31 3.1-1.723 3.79-.413.202-.68.66-.68 1.167v1.139zM12 2c5.523 0 10 4.478 10 10 0 5.523-4.477 10-10 10-5.524 0-10-4.477-10-10C2 6.479 6.476 2 12 2zm0 1.5c-4.687 0-8.5 3.814-8.5 8.5 0 4.687 3.813 8.5 8.5 8.5 4.686 0 8.499-3.813 8.499-8.5 0-4.686-3.813-8.5-8.5-8.5H12zm-1.003 13.507c0-.5526.448-1.0005 1.0005-1.0005.5526 0 1.0005.448 1.0005 1.0005 0 .5523-.4477 1-1 1s-1-.4477-1-1h-.001z" fill="#BBBBBB"></path>
</svg>